# Blender v3.2.1 OBJ File: 'level2_collision.blend'
# www.blender.org
o Plane.001
v 8.000000 0.000000 -21.000000
v 8.000000 0.000000 3.000000
v 11.000000 0.000000 3.000000
v 11.000000 0.000000 -4.000000
v 22.000000 0.000000 -4.000000
v 22.000000 0.000000 -19.000000
v 26.000000 0.000000 -19.000000
v 26.000000 0.000000 -4.000000
v 30.000000 0.000000 -4.000000
v 30.000000 0.000000 30.000000
v -30.000000 0.000000 30.000000
v -30.000000 0.000000 -7.000000
v -13.000000 0.000000 -7.000000
v -13.000000 0.000000 2.000000
v -8.000000 0.000000 2.000000
v -8.000000 0.000000 -17.000000
v -13.000000 0.000000 -17.000000
v -13.000000 0.000000 -10.000000
v -30.000000 0.000000 -10.000000
v -30.000000 0.000000 -30.000000
v -26.000000 0.000000 -30.000000
v -26.000000 0.000000 -21.000000
v -17.000000 0.000000 -3.000000
v -26.000000 0.000000 -3.000000
v -26.000000 0.000000 26.000000
v -17.000000 0.000000 26.000000
v -17.000000 0.000000 15.000000
v -23.000000 0.000000 15.000000
v -23.000000 0.000000 11.000000
v -17.000000 0.000000 11.000000
v -13.000000 0.000000 7.000000
v -13.000000 0.000000 26.000000
v -8.000000 0.000000 26.000000
v -8.000000 0.000000 12.000000
v 18.000000 0.000000 12.000000
v 18.000000 0.000000 3.000000
v 15.000000 0.000000 3.000000
v 15.000000 0.000000 7.000000
v 8.000000 3.999999 -21.000000
v 8.000000 3.999999 3.000000
v 11.000000 3.999999 3.000000
v 11.000000 3.999999 -4.000000
v 22.000000 3.999999 -4.000000
v 22.000000 3.999999 -19.000000
v 26.000000 3.999999 -19.000000
v 26.000000 3.999999 -4.000000
v 30.000000 3.999999 -4.000000
v 30.000000 3.999999 30.000000
v -30.000000 3.999999 30.000000
v -30.000000 3.999999 -7.000000
v -13.000000 3.999999 -7.000000
v -13.000000 3.999999 -17.000000
v -13.000000 3.999999 -10.000000
v -30.000000 3.999999 -10.000000
v -30.000000 3.999999 -30.000000
v -26.000000 3.999999 -30.000000
v -26.000000 3.999999 -21.000000
v -17.000000 3.999999 -3.000000
v -26.000000 3.999999 -3.000000
v -26.000000 3.999999 26.000000
v -17.000000 3.999999 26.000000
v -17.000000 3.999999 15.000000
v -23.000000 3.999999 15.000000
v -23.000000 3.999999 11.000000
v -17.000000 3.999999 11.000000
v -13.000000 3.999999 7.000000
v -13.000000 3.999999 26.000000
v -8.000000 3.999999 26.000000
v 18.000000 3.999999 12.000000
v 18.000000 3.999999 3.000000
v 14.999999 3.999999 3.000000
v 14.999999 3.999999 7.000000
v 1.000000 0.000000 2.000000
v 1.000000 0.000000 3.000000
v -2.000000 0.016890 3.000000
v -2.000000 0.016890 2.000000
v 18.000000 0.000000 11.000000
v 18.000000 3.999999 11.000000
v 26.000000 3.999999 12.000000
v 26.000000 0.000000 12.000000
v 26.000000 0.000000 11.000000
v 26.000000 3.999999 11.000000
v 1.000000 3.999999 2.000000
v -2.000000 4.016891 2.000000
v -2.000000 4.016891 3.000000
v 8.000000 0.000000 2.055918
v 8.000000 3.999999 2.055918
v 2.000000 1.031636 2.008990
v 2.000000 2.500000 2.008990
v 7.000000 2.500000 2.042130
v 7.000000 1.031636 2.042130
v 2.000000 1.031636 3.000000
v 2.000000 2.500000 3.000000
v 7.000000 2.500000 3.000000
v 7.000000 1.031636 3.000000
v 19.000000 1.031636 12.000000
v 19.000000 2.500000 12.000000
v 25.000000 1.031636 12.000000
v 25.000000 2.500000 12.000000
v 19.000000 1.031636 11.000000
v 19.000000 2.500000 11.000000
v 25.000000 2.500000 11.000000
v 25.000000 1.031636 11.000000
v -13.000000 4.000000 2.000000
v -8.000000 4.000000 2.000000
v -8.000000 4.000000 -17.000000
v -8.000000 4.000000 12.000000
v 1.000000 4.000000 3.000000
vn 0.0000 0.0000 1.0000
vn 1.0000 0.0000 0.0000
vn 0.0000 0.0000 -1.0000
vn -1.0000 0.0000 0.0000
vn 0.0090 0.0000 -1.0000
vn 0.0138 0.0000 -0.9999
vn 0.0000 1.0000 0.0000
vn 0.0000 -1.0000 0.0000
vn 0.0066 -0.0016 -1.0000
vn 0.0080 -0.0056 -1.0000
vn 0.0066 0.0023 -1.0000
vn 0.0080 0.0039 -1.0000
vn -0.0028 1.0000 0.0000
vn 0.0056 1.0000 -0.0027
vn -0.0028 1.0000 -0.0028
vn -0.0015 1.0000 0.0000
vn 0.0000 1.0000 0.0042
vn 0.0056 0.9998 -0.0197
vn 0.0028 -1.0000 0.0000
vn -0.0056 -1.0000 0.0027
vn 0.0028 -1.0000 0.0028
vn 0.0015 -1.0000 0.0000
vn 0.0000 -1.0000 -0.0042
vn -0.0056 -0.9998 0.0197
s off
f 26//1 60//1 25//1
f 27//2 61//2 26//2
f 28//3 62//3 27//3
f 29//2 63//2 28//2
f 3//1 40//1 2//1
f 30//1 64//1 29//1
f 4//2 41//2 3//2
f 23//2 65//2 30//2
f 5//1 42//1 4//1
f 6//2 43//2 5//2
f 33//1 67//1 32//1
f 7//1 44//1 6//1
f 8//4 45//4 7//4
f 9//1 46//1 8//1
f 10//4 47//4 9//4
f 11//3 48//3 10//3
f 12//2 49//2 11//2
f 31//3 72//3 38//3
f 13//1 50//1 12//1
f 14//4 51//4 13//4
f 15//1 104//1 14//1
f 16//2 105//2 15//2
f 16//3 52//3 106//3
f 18//4 52//4 17//4
f 19//3 53//3 18//3
f 107//2 33//2 34//2
f 20//2 54//2 19//2
f 69//1 34//1 35//1
f 21//1 55//1 20//1
f 22//4 56//4 21//4
f 37//3 70//3 36//3
f 1//1 57//1 22//1
f 72//4 37//4 38//4
f 24//3 58//3 23//3
f 32//4 66//4 31//4
f 25//4 59//4 24//4
f 70//2 77//2 36//2
f 82//2 80//2 81//2
f 99//1 79//1 69//1
f 98//1 35//1 80//1
f 103//3 77//3 100//3
f 101//3 78//3 82//3
f 73//5 89//5 88//5
f 90//6 87//6 86//6
f 75//1 108//1 85//1
f 75//4 84//4 76//4
f 76//3 83//3 73//3
f 86//4 39//4 1//4
f 74//1 93//1 108//1
f 94//1 95//1 2//1
f 88//2 93//2 92//2
f 90//4 95//4 94//4
f 91//7 92//7 95//7
f 90//8 93//8 89//8
f 97//8 102//8 99//8
f 103//7 96//7 98//7
f 99//4 103//4 98//4
f 96//2 101//2 97//2
f 26//1 61//1 60//1
f 27//2 62//2 61//2
f 28//3 63//3 62//3
f 29//2 64//2 63//2
f 3//1 41//1 40//1
f 30//1 65//1 64//1
f 4//2 42//2 41//2
f 23//2 58//2 65//2
f 5//1 43//1 42//1
f 6//2 44//2 43//2
f 33//1 68//1 67//1
f 7//1 45//1 44//1
f 8//4 46//4 45//4
f 9//1 47//1 46//1
f 10//4 48//4 47//4
f 11//3 49//3 48//3
f 12//2 50//2 49//2
f 31//3 66//3 72//3
f 13//1 51//1 50//1
f 14//4 104//4 51//4
f 15//1 105//1 104//1
f 16//2 106//2 105//2
f 16//3 17//3 52//3
f 18//4 53//4 52//4
f 19//3 54//3 53//3
f 107//2 68//2 33//2
f 20//2 55//2 54//2
f 69//1 107//1 34//1
f 21//1 56//1 55//1
f 22//4 57//4 56//4
f 37//3 71//3 70//3
f 1//1 39//1 57//1
f 72//4 71//4 37//4
f 24//3 59//3 58//3
f 32//4 67//4 66//4
f 25//4 60//4 59//4
f 70//2 78//2 77//2
f 82//2 79//2 80//2
f 35//1 96//1 97//1
f 99//1 98//1 80//1
f 69//1 35//1 97//1
f 99//1 80//1 79//1
f 69//1 97//1 99//1
f 98//1 96//1 35//1
f 103//3 81//3 77//3
f 81//3 103//3 102//3
f 101//3 100//3 77//3
f 82//3 81//3 102//3
f 101//3 77//3 78//3
f 82//3 102//3 101//3
f 73//5 83//5 89//5
f 90//9 89//9 83//9
f 86//10 73//10 91//10
f 73//11 88//11 91//11
f 90//12 83//12 87//12
f 86//6 91//6 90//6
f 75//1 74//1 108//1
f 75//4 85//4 84//4
f 76//3 84//3 83//3
f 86//4 87//4 39//4
f 74//1 92//1 93//1
f 95//1 92//1 74//1
f 40//1 108//1 93//1
f 40//1 93//1 94//1
f 95//1 74//1 2//1
f 40//1 94//1 2//1
f 88//2 89//2 93//2
f 90//4 91//4 95//4
f 91//7 88//7 92//7
f 90//8 94//8 93//8
f 97//8 101//8 102//8
f 103//7 100//7 96//7
f 99//4 102//4 103//4
f 96//2 100//2 101//2
f 21//7 20//7 22//7
f 20//7 19//7 22//7
f 19//7 18//7 22//7
f 18//7 17//7 22//7
f 22//7 17//7 1//7
f 17//7 16//7 1//7
f 86//7 1//7 73//7
f 1//7 16//7 73//7
f 16//13 15//13 76//13
f 73//14 16//14 76//14
f 14//7 13//7 23//7
f 24//7 23//7 12//7
f 12//7 23//7 13//7
f 12//7 11//7 24//7
f 24//7 11//7 25//7
f 26//7 25//7 11//7
f 26//7 11//7 32//7
f 32//7 11//7 33//7
f 11//7 10//7 33//7
f 26//7 32//7 27//7
f 28//7 27//7 29//7
f 29//7 27//7 30//7
f 27//7 32//7 30//7
f 32//7 31//7 30//7
f 30//7 31//7 23//7
f 23//7 31//7 14//7
f 15//7 14//7 31//7
f 15//15 31//15 76//15
f 76//16 31//16 75//16
f 31//17 38//17 75//17
f 75//18 38//18 74//18
f 74//7 38//7 2//7
f 3//7 2//7 38//7
f 38//7 37//7 3//7
f 3//7 37//7 4//7
f 5//7 4//7 37//7
f 37//7 36//7 5//7
f 36//7 8//7 5//7
f 36//7 77//7 8//7
f 81//7 8//7 77//7
f 8//7 81//7 9//7
f 10//7 9//7 81//7
f 81//7 80//7 10//7
f 10//7 80//7 33//7
f 80//7 35//7 33//7
f 33//7 35//7 34//7
f 6//7 5//7 8//7
f 7//7 6//7 8//7
f 56//8 57//8 55//8
f 55//8 57//8 54//8
f 54//8 57//8 53//8
f 53//8 57//8 52//8
f 57//8 39//8 52//8
f 52//8 39//8 106//8
f 87//8 83//8 39//8
f 39//8 83//8 106//8
f 106//19 84//19 105//19
f 83//20 84//20 106//20
f 104//8 58//8 51//8
f 59//8 50//8 58//8
f 50//8 51//8 58//8
f 50//8 59//8 49//8
f 59//8 60//8 49//8
f 61//8 49//8 60//8
f 61//8 67//8 49//8
f 67//8 68//8 49//8
f 49//8 68//8 48//8
f 61//8 62//8 67//8
f 63//8 64//8 62//8
f 64//8 65//8 62//8
f 62//8 65//8 67//8
f 67//8 65//8 66//8
f 65//8 58//8 66//8
f 58//8 104//8 66//8
f 105//8 66//8 104//8
f 105//21 84//21 66//21
f 84//22 85//22 66//22
f 66//23 85//23 72//23
f 85//24 108//24 72//24
f 108//8 40//8 72//8
f 41//8 72//8 40//8
f 72//8 41//8 71//8
f 41//8 42//8 71//8
f 43//8 71//8 42//8
f 71//8 43//8 70//8
f 70//8 43//8 46//8
f 70//8 46//8 78//8
f 82//8 78//8 46//8
f 46//8 47//8 82//8
f 48//8 82//8 47//8
f 82//8 48//8 79//8
f 48//8 68//8 79//8
f 79//8 68//8 69//8
f 68//8 107//8 69//8
f 44//8 46//8 43//8
f 45//8 46//8 44//8
