# Blender v3.2.1 OBJ File: 'sandbags col.blend'
# www.blender.org
o Cube_Cube.018
v -1.100000 0.000000 0.800000
v -1.100000 1.200000 0.800000
v -1.100000 0.000000 0.000000
v -1.100000 1.200000 0.000000
v 1.100000 0.000000 0.800000
v 1.100000 1.200000 0.800000
v 1.100000 0.000000 0.000000
v 1.100000 1.200000 0.000000
v 0.000000 0.000000 0.200000
v 0.000000 1.200000 0.200000
v 0.000000 0.000000 1.000000
v 0.000000 1.200000 1.000000
v 2.729431 0.000000 0.227661
v 2.729431 0.800000 0.227661
v 2.270569 0.000000 -0.427661
v 2.270569 0.800000 -0.427661
v -2.270570 0.000000 -0.427661
v -2.729431 0.000000 0.227661
v -2.729431 0.800000 0.227661
v -2.270570 0.800000 -0.427661
v 2.925891 0.300000 -0.886522
v 2.925891 0.000000 -0.886522
v 3.384752 0.000000 -0.231200
v 3.384752 0.300000 -0.231200
v -2.925891 0.000000 -0.886522
v -3.384752 0.000000 -0.231200
v -3.384752 0.300000 -0.231200
v -2.925891 0.300000 -0.886522
v -1.977927 1.200000 -0.320746
v -2.322073 1.200000 0.370746
v -2.322073 0.000000 0.370746
v -1.977927 0.000000 -0.320746
v 2.322073 0.000000 0.370746
v 2.322073 1.200000 0.370746
v 1.977927 0.000000 -0.320746
v 1.977927 1.200000 -0.320746
vn -0.6348 0.6737 -0.3785
vn -0.1789 0.0000 -0.9839
vn 0.3314 0.0000 0.9435
vn -0.1789 0.0000 0.9839
vn 0.0000 -1.0000 0.0000
vn 0.0000 1.0000 0.0000
vn 0.1789 0.0000 0.9839
vn 0.1789 0.0000 -0.9839
vn 0.4341 0.8480 -0.3040
vn 0.6348 0.6737 -0.3785
vn -0.3432 0.0000 -0.9393
vn 0.3432 0.0000 -0.9393
vn -0.3314 0.0000 0.9435
vn 0.8192 0.0000 -0.5736
vn -0.5736 0.0000 -0.8192
vn 0.5736 0.0000 0.8192
vn -0.8192 0.0000 -0.5736
vn 0.5736 0.0000 -0.8192
vn -0.5736 0.0000 0.8192
vn -0.4341 0.8480 -0.3040
s off
f 30//1 29//1 20//1 19//1
f 9//2 10//2 8//2 7//2
f 34//3 33//3 13//3 14//3
f 11//4 12//4 2//4 1//4
f 9//5 7//5 5//5 11//5
f 10//6 4//6 2//6 12//6
f 8//6 10//6 12//6 6//6
f 3//5 9//5 11//5 1//5
f 5//7 6//7 12//7 11//7
f 3//8 4//8 10//8 9//8
f 16//9 14//9 24//9 21//9
f 33//5 35//5 15//5 13//5
f 36//10 34//10 14//10 16//10
f 35//11 36//11 16//11 15//11
f 17//5 18//5 26//5 25//5
f 32//5 31//5 18//5 17//5
f 29//12 32//12 17//12 20//12
f 31//13 30//13 19//13 18//13
f 22//14 21//14 24//14 23//14
f 15//15 16//15 21//15 22//15
f 14//16 13//16 23//16 24//16
f 13//5 15//5 22//5 23//5
f 26//17 27//17 28//17 25//17
f 20//18 17//18 25//18 28//18
f 18//19 19//19 27//19 26//19
f 19//20 20//20 28//20 27//20
f 1//13 2//13 30//13 31//13
f 4//12 3//12 32//12 29//12
f 3//5 1//5 31//5 32//5
f 2//6 4//6 29//6 30//6
f 7//11 8//11 36//11 35//11
f 8//6 6//6 34//6 36//6
f 5//5 7//5 35//5 33//5
f 6//3 5//3 33//3 34//3
