# Blender v3.2.1 OBJ File: 'tutorial.blend'
# www.blender.org
mtllib tutorial.mtl
o Plane.001
v -29.000000 0.000000 2.000000
v -14.000000 0.000000 4.000000
v -18.000000 0.000000 4.000000
v -18.000000 0.000000 2.000000
v -14.000000 0.000000 -4.000000
v -18.000000 0.000000 -4.000000
v -18.000000 0.000000 -2.000000
v -29.000000 0.000000 -2.000000
v -6.000000 0.000000 -4.000000
v -6.000000 0.000000 -2.000000
v -6.000000 0.000000 2.000000
v -6.000000 0.000000 4.000000
v -10.000000 0.000000 2.000000
v -10.000000 0.000000 -2.000000
v 0.000000 0.000000 -4.000000
v 0.000000 0.000000 4.000000
v -29.000000 1.000000 2.000000
v -14.000000 1.000000 4.000000
v -18.000000 1.000000 4.000000
v -18.000000 1.000000 2.000000
v -14.000000 1.000000 -4.000000
v -18.000000 1.000000 -4.000000
v -18.000000 1.000000 -2.000000
v -29.000000 1.000000 -2.000000
v -6.000000 1.000000 -4.000000
v -6.000000 1.000000 -2.000000
v -6.000000 1.000000 2.000000
v -6.000000 1.000000 4.000000
v -10.000000 1.000000 2.000000
v -10.000000 1.000000 -2.000000
v 0.000000 1.000000 -4.000000
v 0.000000 1.000000 4.000000
v -29.000000 2.000000 2.000000
v -14.000000 2.000000 4.000000
v -18.000000 2.000000 4.000000
v -18.000000 2.000000 2.000000
v -14.000000 2.000000 -4.000000
v -18.000000 2.000000 -4.000000
v -18.000000 2.000000 -2.000000
v -29.000000 2.000000 -2.000000
v -6.000000 2.000000 -4.000000
v 19.000000 2.000000 -9.000000
v 19.000000 2.000000 4.000000
v -6.000000 2.000000 4.000000
v 0.000000 2.000000 -4.000000
v 0.000000 2.000000 4.000000
v 25.000000 2.000000 -9.000000
v 25.000000 2.000000 4.000000
v 29.000000 2.000000 4.000000
v 29.000000 2.000000 -13.000000
v 15.000000 2.000000 -13.000000
v 15.000000 2.000000 -4.000000
v -29.000000 4.000000 2.000000
v -14.000000 4.000000 4.000000
v -18.000000 4.000000 4.000000
v -18.000000 4.000000 2.000000
v -14.000000 4.000000 -4.000000
v -18.000000 4.000000 -4.000000
v -18.000000 4.000000 -2.000000
v -29.000000 4.000000 -2.000000
v -6.000000 4.000000 -4.000000
v 19.000000 4.000000 -9.000000
v 19.000000 4.000000 4.000000
v -6.000000 4.000000 4.000000
v 0.000000 4.000000 -4.000000
v 0.000000 4.000000 4.000000
v 25.000000 4.000000 -9.000000
v 25.000000 4.000000 4.000000
v 29.000000 4.000000 4.000000
v 29.000000 4.000000 -13.000000
v 15.000000 4.000000 -13.000000
v 15.000000 4.000000 -4.000000
v 19.000000 6.000000 -9.000000
v 19.000000 6.000000 4.000000
v 0.000000 6.000000 -4.000000
v 0.000000 6.000000 4.000000
v 25.000000 6.000000 -9.000000
v 25.000000 6.000000 4.000000
v 29.000000 6.000000 4.000000
v 29.000000 6.000000 -13.000000
v 15.000000 6.000000 -13.000000
v 15.000000 6.000000 -4.000000
vt -2.885646 -0.523894
vt -1.506335 -0.179066
vt -1.506335 -0.523894
vt -0.414120 -0.523894
vt 0.275535 -0.179066
vt 0.275535 -0.523894
vt -2.483086 -0.523894
vt 0.275535 -0.179066
vt 0.275535 -0.523894
vt -2.483086 -0.523894
vt -1.793431 -0.179066
vt -1.793431 -0.523894
vt -9.437369 -0.523894
vt -5.644267 -0.179066
vt -5.644267 -0.523894
vt -0.414120 -0.523894
vt -1.793431 -0.179066
vt -1.793431 -0.523894
vt -2.483086 -0.523894
vt -1.793431 -0.179066
vt -1.793431 -0.523894
vt -2.885646 -0.523894
vt -1.506335 -0.179066
vt -1.506335 -0.523894
vt 0.275535 -0.523894
vt -2.483086 -0.179066
vt -2.483086 -0.523894
vt -0.414120 -0.523894
vt -1.793431 -0.179066
vt -1.793431 -0.523894
vt -0.414120 -0.523894
vt 0.275535 -0.179066
vt 0.275535 -0.523894
vt -4.264956 -0.523894
vt -5.644267 -0.179066
vt -5.644267 -0.523894
vt -5.644267 -0.523894
vt -9.437369 -0.179066
vt -9.437369 -0.523894
vt 0.562629 -0.523894
vt -1.506335 -0.179066
vt -1.506335 -0.523894
vt -5.644267 -0.523894
vt -4.264956 -0.179066
vt -4.264956 -0.523894
vt 0.562629 -0.523894
vt -1.506335 -0.179066
vt -1.506335 -0.523894
vt -4.264956 -0.179066
vt -5.644267 0.165761
vt -5.644267 -0.179066
vt -9.437369 0.165761
vt 0.562629 -0.179066
vt -1.506335 0.165761
vt -5.644267 -0.179066
vt -4.264956 0.165761
vt 0.562629 -0.179066
vt -1.506335 0.165761
vt -0.414120 -0.179066
vt 0.275535 0.165761
vt -2.483086 -0.179066
vt 0.275535 0.165761
vt -9.437369 -0.179066
vt -5.644267 0.165761
vt -4.264956 0.165761
vt -0.414120 -0.179066
vt -1.793431 0.165761
vt -2.483086 -0.179066
vt -1.793431 0.165761
vt -5.644267 0.165761
vt -4.264956 0.855416
vt 5.735043 0.165761
vt 10.562631 0.855416
vt 10.562631 0.165761
vt 7.114354 0.165761
vt 0.562629 0.855416
vt 0.562629 0.165761
vt -0.414120 0.165761
vt 0.275535 0.855416
vt 0.275535 0.165761
vt 3.378983 0.855416
vt 3.378983 0.165761
vt 0.562629 0.165761
vt -1.506335 0.855416
vt -9.437369 0.165761
vt -5.644267 0.855416
vt 5.735043 0.165761
vt 0.562629 0.855416
vt -1.506335 0.855416
vt -0.414120 0.165761
vt -1.793431 0.855416
vt -2.483086 0.165761
vt -1.793431 0.855416
vt -2.483086 0.165761
vt 1.999672 0.855416
vt 1.999672 0.165761
vt 9.183320 0.165761
vt 7.114354 0.855416
vt 7.114354 0.165761
vt -5.644267 0.855416
vt 10.562631 0.165761
vt 9.183320 0.855416
vt 9.183320 0.165761
vt 1.999672 0.165761
vt -2.483086 0.855416
vt -2.483086 0.165761
vt -5.644267 0.165761
vt -9.437369 0.855416
vt 3.378983 0.165761
vt -2.483086 0.855416
vt -2.483086 0.165761
vt -4.264956 0.855416
vt 5.735043 0.855416
vt 0.562629 1.545071
vt 3.378983 0.855416
vt -2.483086 1.545071
vt 7.114354 0.855416
vt 0.562629 1.545071
vt 5.735043 0.855416
vt 10.562631 1.545071
vt 9.183320 0.855416
vt 7.114354 1.545071
vt -2.483086 0.855416
vt 1.999672 1.545071
vt 0.275535 0.855416
vt 3.378983 1.545071
vt 1.999672 0.855416
vt -2.483086 1.545071
vt 10.562631 0.855416
vt 9.183320 1.545071
vt -2.885646 -0.179066
vt -2.483086 -0.179066
vt -2.885646 -0.179066
vt 0.275535 -0.179066
vt -0.414120 -0.179066
vt -0.414120 -0.179066
vt -2.483086 0.165761
vt -5.644267 0.855416
vt -0.414120 0.855416
vt -9.437369 0.855416
vt -0.414120 0.855416
vt -2.483086 0.855416
vt -5.644267 0.855416
vt 5.735043 1.545071
vt 3.378983 1.545071
vt 7.114354 1.545071
vt 5.735043 1.545071
vt 9.183320 1.545071
vt -2.483086 1.545071
vt 0.275535 1.545071
vt 1.999672 1.545071
vt 10.562631 1.545071
vt -2.540818 -0.563793
vt -4.437369 0.125862
vt -4.437369 -0.563793
vt -2.540818 0.125862
vt 0.562630 -0.908621
vt 3.838492 1.332758
vt 3.148837 2.022414
vt 3.148837 0.470690
vt -2.540818 -0.908621
vt 0.562630 0.470690
vt -2.540818 0.470690
vt 4.872975 1.332758
vt 4.872975 -0.908621
vt 5.562631 -0.908621
vt 5.562631 2.022414
vt 3.838492 -0.908621
vt 3.838492 1.332758
vt 3.148837 2.022414
vt 5.562631 2.022414
vt 0.562630 0.470690
vt -0.471852 -0.563793
vt -0.471852 0.125862
vt -1.851163 -0.908621
vt -1.851163 0.470690
vt -1.161508 -0.563793
vt -2.540818 -0.563793
vt -2.540818 0.125862
vt -1.851163 -0.908621
vt 3.838492 -0.908621
vt 0.562630 -0.908621
vt 3.148837 0.470690
vt 0.562630 0.470690
vt 5.562631 -0.908621
vt 4.872975 1.332758
vt 4.872975 -0.908621
vt -0.471852 0.470690
vt 0.562630 -0.908621
vt -0.471852 -0.908621
vt -1.161508 -0.563793
vt -1.161508 0.125862
vt -0.471852 -0.563793
vt -0.471852 -0.908621
vt -0.471852 0.470690
vt -1.161508 0.125862
vt -0.471852 0.125862
vt -4.437369 -0.563793
vt -4.437369 0.125862
vt -2.540818 0.470690
vt -1.851163 0.470690
vt -2.540818 -0.908621
vn 0.0000 0.0000 -1.0000
vn -1.0000 0.0000 0.0000
vn 1.0000 0.0000 0.0000
vn 0.0000 0.0000 1.0000
vn 0.0000 1.0000 0.0000
vn -0.1104 0.9939 0.0000
vn 0.0000 -1.0000 0.0000
usemtl Bricks
s off
f 13/1/1 27/2/1 11/3/1
f 7/4/2 22/5/2 6/6/2
f 16/7/2 31/8/2 15/9/2
f 12/10/2 27/11/2 11/12/2
f 8/13/1 23/14/1 7/15/1
f 8/16/3 17/17/3 1/18/3
f 3/19/2 20/20/2 4/21/2
f 14/22/1 26/23/1 10/24/1
f 5/25/3 18/26/3 2/27/3
f 14/28/3 29/29/3 13/30/3
f 10/31/2 25/32/2 9/33/2
f 2/34/4 19/35/4 3/36/4
f 4/37/4 17/38/4 1/39/4
f 15/40/4 25/41/4 9/42/4
f 6/43/1 21/44/1 5/45/1
f 16/46/4 28/47/4 12/48/4
f 18/49/4 35/50/4 19/35/4
f 20/51/4 33/52/4 17/38/4
f 31/53/4 41/54/4 25/41/4
f 22/55/1 37/56/1 21/44/1
f 32/57/4 44/58/4 28/47/4
f 23/59/2 38/60/2 22/5/2
f 32/61/2 45/62/2 31/8/2
f 24/63/1 39/64/1 23/14/1
f 28/47/4 34/65/4 18/49/4
f 24/66/3 33/67/3 17/17/3
f 19/68/2 36/69/2 20/20/2
f 25/41/4 37/56/4 21/44/4
f 38/70/1 57/71/1 37/56/1
f 51/72/1 70/73/1 50/74/1
f 43/75/4 66/76/4 46/77/4
f 39/78/2 58/79/2 38/60/2
f 52/80/2 71/81/2 51/82/2
f 45/83/4 61/84/4 41/54/4
f 40/85/1 59/86/1 39/64/1
f 52/87/4 65/88/4 45/83/4
f 46/77/4 64/89/4 44/58/4
f 40/90/3 53/91/3 33/67/3
f 41/54/4 57/71/4 37/56/4
f 35/92/2 56/93/2 36/69/2
f 48/94/2 67/95/2 47/96/2
f 47/97/4 62/98/4 42/99/4
f 34/65/4 55/100/4 35/50/4
f 49/101/4 68/102/4 48/103/4
f 42/104/3 63/105/3 43/106/3
f 36/107/4 53/108/4 33/52/4
f 50/109/3 69/110/3 49/111/3
f 44/58/4 54/112/4 34/65/4
f 72/113/4 75/114/4 65/88/4
f 70/115/3 79/116/3 69/110/3
f 63/117/4 76/118/4 66/76/4
f 71/119/1 80/120/1 70/73/1
f 67/121/4 73/122/4 62/98/4
f 68/123/2 77/124/2 67/95/2
f 72/125/2 81/126/2 71/81/2
f 62/127/3 74/128/3 63/105/3
f 69/129/4 78/130/4 68/102/4
f 75/114/1 65/88/1 61/84/1
f 54/112/4 64/89/4 76/118/4
f 13/1/1 29/131/1 27/2/1
f 7/4/2 23/59/2 22/5/2
f 16/7/2 32/61/2 31/8/2
f 12/10/2 28/132/2 27/11/2
f 8/13/1 24/63/1 23/14/1
f 8/16/3 24/66/3 17/17/3
f 3/19/2 19/68/2 20/20/2
f 14/22/1 30/133/1 26/23/1
f 5/25/3 21/134/3 18/26/3
f 14/28/3 30/135/3 29/29/3
f 10/31/2 26/136/2 25/32/2
f 2/34/4 18/49/4 19/35/4
f 4/37/4 20/51/4 17/38/4
f 15/40/4 31/53/4 25/41/4
f 6/43/1 22/55/1 21/44/1
f 16/46/4 32/57/4 28/47/4
f 18/49/4 34/65/4 35/50/4
f 20/51/4 36/107/4 33/52/4
f 31/53/4 45/83/4 41/54/4
f 22/55/1 38/70/1 37/56/1
f 32/57/4 46/77/4 44/58/4
f 23/59/2 39/78/2 38/60/2
f 32/61/2 46/137/2 45/62/2
f 24/63/1 40/85/1 39/64/1
f 28/47/4 44/58/4 34/65/4
f 24/66/3 40/90/3 33/67/3
f 19/68/2 35/92/2 36/69/2
f 25/41/4 41/54/4 37/56/4
f 38/70/1 58/138/1 57/71/1
f 51/72/1 71/119/1 70/73/1
f 43/75/4 63/117/4 66/76/4
f 39/78/2 59/139/2 58/79/2
f 52/80/2 72/125/2 71/81/2
f 45/83/4 65/88/4 61/84/4
f 40/85/1 60/140/1 59/86/1
f 52/87/4 72/113/4 65/88/4
f 46/77/4 66/76/4 64/89/4
f 40/90/3 60/141/3 53/91/3
f 41/54/4 61/84/4 57/71/4
f 35/92/2 55/142/2 56/93/2
f 48/94/2 68/123/2 67/95/2
f 47/97/4 67/121/4 62/98/4
f 34/65/4 54/112/4 55/100/4
f 49/101/4 69/129/4 68/102/4
f 42/104/3 62/127/3 63/105/3
f 36/107/4 56/143/4 53/108/4
f 50/109/3 70/115/3 69/110/3
f 44/58/4 64/89/4 54/112/4
f 72/113/4 82/144/4 75/114/4
f 70/115/3 80/145/3 79/116/3
f 63/117/4 74/146/4 76/118/4
f 71/119/1 81/147/1 80/120/1
f 67/121/4 77/148/4 73/122/4
f 68/123/2 78/149/2 77/124/2
f 72/125/2 82/150/2 81/126/2
f 62/127/3 73/151/3 74/128/3
f 69/129/4 79/152/4 78/130/4
f 61/84/1 57/71/1 75/114/1
f 57/71/1 58/138/1 75/114/1
f 76/118/4 55/100/4 54/112/4
f 64/89/4 66/76/4 76/118/4
usemtl Ceiling
f 56/153/5 60/154/5 53/155/5
f 59/156/6 56/153/6 76/157/6
f 73/158/5 81/159/5 82/160/5
f 56/153/5 59/156/5 60/154/5
f 56/153/6 55/161/6 76/157/6
f 76/157/6 75/162/6 59/156/6
f 75/162/6 58/163/6 59/156/6
f 77/164/5 78/165/5 79/166/5
f 82/160/5 75/162/5 76/157/5
f 77/164/5 79/166/5 80/167/5
f 82/160/5 76/157/5 74/168/5
f 73/158/5 77/164/5 80/167/5
f 82/160/5 74/168/5 73/158/5
f 73/158/5 80/167/5 81/159/5
usemtl Ground
f 42/169/7 51/170/7 50/171/7
f 15/172/7 11/173/7 10/174/7
f 18/175/7 21/176/7 29/177/7
f 4/178/7 7/179/7 2/180/7
f 43/181/7 46/182/7 52/183/7
f 46/182/7 45/184/7 52/183/7
f 42/169/7 43/181/7 52/183/7
f 50/171/7 49/185/7 47/186/7
f 49/185/7 48/187/7 47/186/7
f 42/169/7 52/183/7 51/170/7
f 50/171/7 47/186/7 42/169/7
f 10/174/7 9/188/7 15/172/7
f 15/172/7 16/189/7 11/173/7
f 16/189/7 12/190/7 11/173/7
f 11/173/7 13/191/7 14/192/7
f 11/173/7 14/192/7 10/174/7
f 27/193/7 28/194/7 29/177/7
f 28/194/7 18/175/7 29/177/7
f 21/176/7 25/195/7 30/196/7
f 25/195/7 26/197/7 30/196/7
f 21/176/7 30/196/7 29/177/7
f 4/178/7 1/198/7 8/199/7
f 7/179/7 6/200/7 5/201/7
f 4/178/7 8/199/7 7/179/7
f 2/180/7 3/202/7 4/178/7
f 7/179/7 5/201/7 2/180/7
