# Blender v3.2.1 OBJ File: 'level1_alt_collision.blend'
# www.blender.org
o Plane.001
v 5.000000 0.000000 15.000000
v 5.000000 0.000000 24.000000
v 25.000000 0.000000 24.000000
v 25.000000 0.000000 5.000000
v 14.000000 0.000000 5.000000
v 14.000000 0.000000 7.000000
v 9.000000 0.000000 7.000000
v 9.000000 0.000000 2.000000
v 27.000000 0.000000 2.000000
v 27.000000 0.000000 -8.000000
v -5.000000 0.000000 -8.000000
v -5.000000 0.000000 -16.000000
v -23.000000 0.000000 -16.000000
v -23.000000 0.000000 -25.000000
v -27.000000 0.000000 -25.000000
v -27.000000 0.000000 -12.000000
v -19.000000 0.000000 -12.000000
v -19.000000 0.000000 -10.000000
v -13.000000 0.000000 2.000000
v -13.000000 0.000000 -2.000000
v -15.000000 0.000000 -2.000000
v -15.000000 0.000000 -10.000000
v -5.000000 0.000000 2.000000
v -5.000000 0.000000 -4.000000
v 24.000000 0.000000 -4.000000
v 24.000000 0.000000 -3.000000
v 19.000000 0.000000 -3.000000
v 19.000000 0.000000 -1.000000
v 17.000000 0.000000 -1.000000
v 17.000000 0.000000 -3.000000
v 12.000000 0.000000 -3.000000
v 12.000000 0.000000 -1.000000
v 10.000000 0.000000 -1.000000
v 10.000000 0.000000 -3.000000
v 5.000000 0.000000 -3.000000
v 5.000000 0.000000 11.000000
v 18.000000 0.000000 11.000000
v 18.000000 0.000000 14.000000
v 14.000000 0.000000 14.000000
v 14.000000 0.000000 20.000000
v 9.000000 0.000000 20.000000
v 9.000000 0.000000 15.000000
v -10.000000 0.000000 -10.000000
v -7.000000 0.000000 -10.000000
v -7.000000 0.000000 -2.000000
v -10.000000 0.000000 -2.000000
v 5.000000 3.000000 15.000000
v 14.000000 3.000000 5.000000
v 9.000000 3.000000 2.000000
v 27.000000 3.000000 2.000000
v -5.000000 3.000000 -16.000000
v -23.000000 3.000000 -16.000000
v -23.000000 3.000000 -25.000000
v -27.000000 3.000000 -25.000000
v -19.000000 3.000000 -10.000000
v -19.000000 3.000000 2.000000
v -13.000000 3.000000 2.000000
v -13.000000 3.000000 -2.000000
v -15.000000 3.000000 -2.000000
v -15.000000 3.000000 -10.000000
v -5.000000 3.000000 2.000000
v 24.000000 3.000000 -4.000000
v 19.000000 3.000000 -3.000000
v 10.000000 3.000000 -3.000000
v 5.000000 3.000000 11.000000
v 18.000000 3.000000 14.000000
v 14.000000 3.000000 14.000000
v 14.000000 3.000000 20.000000
v -10.000000 3.000000 -10.000000
v -7.000000 3.000000 -10.000000
v -7.000000 3.000000 -2.000000
v -10.000000 3.000000 -2.000000
v -19.000000 0.000000 -16.000000
v -19.000000 3.000000 -16.000000
v -5.000000 6.000000 -16.000000
v -19.000000 6.000000 -12.000000
v -13.000000 6.000000 2.000000
v -7.000000 6.000000 -2.000000
v 5.000000 3.000000 24.000000
v 25.000000 3.000000 24.000000
v 25.000000 3.000000 5.000000
v 14.000000 3.000000 7.000000
v 9.000000 3.000000 7.000000
v 27.000000 3.000000 -8.000000
v -5.000000 3.000000 -8.000000
v -27.000000 3.000000 -12.000000
v -19.000000 3.000000 -12.000000
v -5.000000 3.000000 -4.000000
v 24.000000 3.000000 -3.000000
v 19.000000 3.000000 -1.000000
v 17.000000 3.000000 -1.000000
v 17.000000 3.000000 -3.000000
v 12.000000 3.000000 -3.000000
v 12.000000 3.000000 -1.000000
v 10.000000 3.000000 -1.000000
v 5.000000 3.000000 -3.000000
v 18.000000 3.000000 11.000000
v 9.000000 3.000000 20.000000
v 9.000000 3.000000 15.000000
v -5.000000 6.000000 -8.000000
v -5.000000 6.000000 2.000000
v -5.000000 6.000000 -4.000000
v -10.000000 6.000000 -10.000000
v -7.000000 6.000000 -10.000000
v -10.000000 6.000000 -2.000000
v -19.000000 6.000000 -10.000000
v -19.000000 6.000000 2.000000
v -13.000000 6.000000 -2.000000
v -15.000000 6.000000 -2.000000
v -15.000000 6.000000 -10.000000
v -19.000000 6.000000 -16.000000
v 20.000000 2.500000 -3.000000
v 23.000000 1.000000 -3.000000
v 23.000000 2.500000 -3.000000
v 20.000000 1.000000 -3.000000
v 13.000000 2.500000 -3.000000
v 16.000000 1.000000 -3.000000
v 16.000000 2.500000 -3.000000
v 13.000000 1.000000 -3.000000
v 6.000000 2.500000 -3.000000
v 9.000000 1.000000 -3.000000
v 9.000000 2.500000 -3.000000
v 6.000000 1.000000 -3.000000
v 6.000000 2.500000 -4.000000
v 13.000000 2.500000 -4.000000
v 9.000000 2.500000 -4.000000
v 16.000000 2.500000 -4.000000
v 16.000000 2.172414 -4.000000
v 9.000000 1.000000 -4.000000
v 6.000000 1.000000 -4.000000
v 13.000000 1.000000 -4.000000
v 16.000000 1.000000 -4.000000
v 20.000000 2.000000 -4.000000
v 20.000000 1.000000 -4.000000
v 20.000000 2.500000 -4.000000
v 23.000000 1.000000 -4.000000
v 23.000000 2.500000 -4.000000
vt -4.162694 0.515853
vt -6.384916 -0.595257
vt -4.162694 -0.595257
vt -4.533064 0.515853
vt -7.866398 -0.595257
vt -4.533064 -0.595257
vt 7.488037 -0.595257
vt 9.339889 -0.595257
vt 7.858408 -0.224887
vt 9.339889 0.515853
vt 7.858408 0.330668
vt 8.969520 0.330668
vt 10.281751 0.515853
vt 5.466936 -0.595257
vt 10.281751 -0.595257
vt 5.636186 0.515853
vt 3.784334 -0.595257
vt 5.636186 -0.595257
vt 2.302852 0.515853
vt 9.710260 -0.595257
vt 2.302852 -0.595257
vt 2.133602 0.515853
vt 1.392861 -0.595257
vt 2.133602 -0.595257
vt -9.549000 0.515853
vt -6.586037 -0.595257
vt -9.549000 -0.595257
vt -6.384916 0.515853
vt -4.533064 -0.595257
vt -6.384916 -0.595257
vt -7.866398 0.515853
vt -0.829361 -0.595257
vt -7.866398 -0.595257
vt 7.488037 0.515853
vt 6.747296 -0.595257
vt 7.488037 -0.595257
vt 5.466936 0.515853
vt 4.726194 -0.595257
vt 5.466936 -0.595257
vt 3.784334 -0.595257
vt 2.302852 0.515853
vt 2.302852 -0.595257
vt 9.710260 0.515853
vt 5.636186 -0.595257
vt 9.710260 -0.595257
vt 1.392861 0.515853
vt 2.133602 -0.595257
vt 1.392861 -0.595257
vt -3.252703 0.515853
vt -2.141592 -0.595257
vt -3.252703 -0.595257
vt -0.829361 0.515853
vt -1.570101 -0.595257
vt -0.829361 -0.595257
vt 4.895444 -0.595257
vt 6.747296 -0.595257
vt 5.265816 -0.224887
vt 6.747296 0.515853
vt 5.265816 0.330668
vt 6.376926 0.330668
vt 4.726194 0.515853
vt 1.763232 -0.595257
vt 4.726194 -0.595257
vt 5.636186 0.515853
vt 3.784334 -0.595257
vt 5.636186 -0.595257
vt 2.133602 0.515853
vt 1.392861 -0.595257
vt 2.133602 -0.595257
vt 1.763232 -0.595257
vt 0.281750 0.515853
vt 0.281750 -0.595257
vt -2.141592 0.515853
vt -3.252703 -0.595257
vt -2.141592 -0.595257
vt -1.570101 0.515853
vt 0.281750 -0.595257
vt -1.570101 -0.595257
vt 4.895444 0.515853
vt 4.154704 -0.595257
vt 4.895444 -0.595257
vt -5.104556 -0.595257
vt -4.363814 0.515853
vt -4.363814 -0.595257
vt 1.763232 -0.595257
vt 4.726194 0.515853
vt 4.726194 -0.595257
vt 3.784334 0.515853
vt 10.451000 -0.595257
vt 3.784334 -0.595257
vt 1.392861 0.515853
vt 2.133602 -0.595257
vt 1.392861 -0.595257
vt 4.726194 -0.595257
vt 1.763232 0.515853
vt 1.763232 -0.595257
vt 0.281750 0.515853
vt 3.985454 -0.595257
vt 0.281750 -0.595257
vt 2.302852 -0.595257
vt 4.154704 -0.595257
vt 2.673222 -0.224887
vt 4.154704 0.515853
vt 2.673222 0.330668
vt 3.784334 0.330668
vt -6.586037 0.515853
vt -5.104556 -0.595257
vt -6.586037 -0.595257
vt 10.451000 0.515853
vt -1.400852 -0.595257
vt 10.451000 -0.595257
vt 2.133602 0.515853
vt -3.051583 -0.595257
vt 2.133602 -0.595257
vt -4.363814 0.515853
vt -1.400852 -0.595257
vt -4.363814 -0.595257
vt 3.985454 0.515853
vt 6.948417 -0.595257
vt 3.985454 -0.595257
vt 2.302852 0.515853
vt 7.117668 -0.595257
vt 2.302852 -0.595257
vt 0.281750 0.515853
vt 2.503973 -0.595257
vt 0.281750 -0.595257
vt -6.586037 0.515853
vt -8.067518 -0.595257
vt -6.586037 -0.595257
vt -3.051583 0.515853
vt -4.162694 -0.595257
vt -3.051583 -0.595257
vt 3.784334 -0.224887
vt 5.265816 0.330668
vt 5.265816 -0.224887
vt 2.673222 -0.224887
vt -1.400852 -0.595257
vt -1.400852 0.515853
vt 9.339889 0.515853
vt 8.969520 -0.224887
vt 8.969520 0.330668
vt 7.858408 0.145483
vt 6.376926 -0.224887
vt 6.376926 0.209340
vt 6.948417 0.515853
vt 10.281751 -0.595257
vt 6.948417 -0.595257
vt 7.117668 0.515853
vt 5.636186 -0.595257
vt 7.117668 -0.595257
vt 2.503973 0.515853
vt 2.133602 -0.595257
vt 2.503973 -0.595257
vt -8.067518 0.515853
vt -9.549000 -0.595257
vt -8.067518 -0.595257
vt -1.400852 0.515853
vt -1.400852 -0.595257
vt -2.141592 1.626965
vt -3.252703 0.515853
vt 5.466936 1.626965
vt 4.726194 0.515853
vt -4.363814 1.626965
vt -1.400852 0.515853
vt 1.763232 0.515853
vt 4.726194 1.626965
vt 3.985454 1.626965
vt 6.948417 0.515853
vt -3.252703 1.626965
vt -2.141592 0.515853
vt 4.726194 1.626965
vt 0.281750 0.515853
vt 0.281750 1.626965
vt 2.503973 0.515853
vt -1.400852 1.626965
vt 4.726194 1.626965
vt 1.763232 0.515853
vt -6.586037 1.626965
vt -6.586037 0.515853
vt 6.948417 1.626965
vt 2.503973 1.626965
vt 2.133602 0.330668
vt 2.503973 -0.224887
vt 2.503973 0.330668
vt 2.133602 -0.224887
vt 2.503973 0.330668
vt 2.503973 -0.224887
vt 2.133602 0.330668
vt 2.503973 -0.224887
vt 2.503973 0.330668
vt 2.133602 0.330668
vt 2.503973 0.330668
vt 2.503973 0.209340
vt 2.133602 -0.224887
vt 2.503973 -0.224887
vt 2.503973 0.145483
vt 2.133602 -0.224887
vt 2.503973 0.330668
vt 2.503973 -0.224887
vt -6.384916 0.515853
vt -7.866398 0.515853
vt 7.488037 0.515853
vt 8.969520 -0.224887
vt 5.466936 0.515853
vt 3.784334 0.515853
vt 9.710260 0.515853
vt 1.392861 0.515853
vt -6.586037 0.515853
vt -4.533064 0.515853
vt -0.829361 0.515853
vt 6.747296 0.515853
vt 3.784334 0.515853
vt 5.636186 0.515853
vt 2.133602 0.515853
vt -1.570101 0.515853
vt 4.895444 0.515853
vt 6.376926 -0.224887
vt 3.784334 0.515853
vt 1.392861 0.515853
vt 1.763232 0.515853
vt 0.281750 0.515853
vt 4.154704 0.515853
vt -5.104556 0.515853
vt 10.451000 0.515853
vt 2.133602 0.515853
vt 4.726194 0.515853
vt 3.985454 0.515853
vt 2.302852 0.515853
vt 3.784334 -0.224887
vt -5.104556 0.515853
vt -1.400852 0.515853
vt -3.051583 0.515853
vt 7.117668 0.515853
vt -8.067518 0.515853
vt -4.162694 0.515853
vt 3.784334 0.330668
vt 9.339889 -0.595257
vt 7.858408 -0.224887
vt 7.858408 0.330668
vt 6.376926 0.330668
vt 2.673222 0.330668
vt 10.281751 0.515853
vt 5.636186 0.515853
vt 2.133602 0.515853
vt -9.549000 0.515853
vt -3.252703 1.626965
vt -1.400852 1.626965
vt 1.763232 1.626965
vt 6.948417 1.626965
vt -2.141592 1.626965
vt 0.281750 1.626965
vt -6.586037 1.626965
vt 1.763232 1.626965
vt 6.948417 0.515853
vt 2.133602 -0.224887
vt 2.133602 0.330668
vt 2.133602 -0.224887
vt 2.503973 -0.224887
vt 2.133602 -0.224887
vt 2.503973 0.330668
vt 2.133602 0.330668
vt 2.133602 0.330668
vt -3.759259 3.663264
vt -3.018519 3.663264
vt -3.018519 2.846939
vt -4.500000 2.846939
vt -4.500000 5.500000
vt -3.759259 5.500000
vt -0.425926 2.030612
vt 5.500000 2.030612
vt -0.425926 1.214285
vt 4.944445 1.214285
vt 5.500000 -0.010205
vt 4.944445 1.010203
vt 4.018519 0.602041
vt 4.018519 1.010203
vt 3.648148 0.602041
vt 2.166666 -0.010205
vt 2.722222 0.602041
vt 3.648148 1.010203
vt 2.722222 1.010203
vt 2.351851 0.602041
vt 1.425926 1.010203
vt 2.351851 1.010203
vt 1.425926 -1.846939
vt 2.166666 -1.030613
vt 3.833333 -1.846939
vt 3.092593 -1.030613
vt 5.129629 -0.622449
vt 3.092593 -0.622449
vt 5.129629 -4.500000
vt 3.833333 -2.459184
vt 3.092593 -2.459184
vt 3.092593 -3.683674
vt 1.425926 -4.500000
vt 2.166666 -3.683674
vt 1.425926 -2.663265
vt 2.166666 -2.663265
vt -0.425926 1.214285
vt -0.796297 0.806122
vt -0.425926 2.030612
vt -0.796297 2.438775
vt -0.425926 3.663264
vt -3.018519 3.663264
vt -1.351852 2.438775
vt -3.018519 2.846939
vt -2.277778 2.438775
vt -3.018519 2.438775
vt -2.277778 0.806122
vt -1.907408 0.806122
vt -1.351852 0.806122
vt -1.907408 -0.010205
vt -0.425926 -0.010205
vt -3.018519 -0.010205
vt 1.611110 1.010203
vt 2.166666 1.214285
vt 2.166666 1.010203
vt 2.907407 1.010203
vt 3.462962 1.214285
vt 3.462962 1.010203
vt 4.203703 1.010203
vt 4.759258 1.214285
vt 4.759258 1.010203
vt 1.611110 1.214285
vt 2.907407 1.214285
vt 4.203703 1.214285
vt -0.425926 1.214285
vt -0.425926 2.030612
vt -0.796297 0.806122
vt -0.796297 2.438775
vt -0.425926 3.663264
vt -3.018519 3.663264
vt -1.351852 2.438775
vt -3.018519 2.846939
vt -2.277778 2.438775
vt -3.018519 2.438775
vt -2.277778 0.806122
vt -1.907408 0.806122
vt -1.351852 0.806122
vt -1.907408 -0.010205
vt -0.425926 -0.010205
vt -3.759259 3.663264
vt -4.500000 2.846939
vt -4.500000 5.500000
vt -3.759259 5.500000
vt 5.500000 2.030612
vt 4.944445 1.214285
vt 5.500000 -0.010205
vt 4.944445 1.010203
vt 4.018519 0.602041
vt 4.018519 1.010203
vt 3.648148 0.602041
vt 2.166666 -0.010205
vt 2.722222 0.602041
vt 3.648148 1.010203
vt 2.722222 1.010203
vt 2.351851 0.602041
vt 1.425926 1.010203
vt 2.351851 1.010203
vt 1.425926 -1.846939
vt 2.166666 -1.030613
vt 3.833333 -1.846939
vt 3.092593 -1.030613
vt 5.129629 -0.622449
vt 3.092593 -0.622449
vt 5.129629 -4.500000
vt 3.833333 -2.459184
vt 3.092593 -2.459184
vt 3.092593 -3.683674
vt 1.425926 -4.500000
vt 2.166666 -3.683674
vt 1.425926 -2.663265
vt 2.166666 -2.663265
vt -1.907408 0.806122
vt -3.018519 -0.010205
vt -1.907408 -0.010205
vt -2.277778 0.806122
vt -3.018519 2.438775
vt -2.277778 2.438775
vt 1.611110 1.010203
vt 2.166666 1.214285
vt 1.611110 1.214285
vt 2.907407 1.010203
vt 3.462962 1.214285
vt 2.907407 1.214285
vt 4.203703 1.010203
vt 4.759258 1.214285
vt 4.203703 1.214285
vt 2.166666 1.010203
vt 3.462962 1.010203
vt 4.759258 1.010203
vn 1.0000 0.0000 0.0000
vn 0.0000 0.0000 1.0000
vn 0.0000 0.0000 -1.0000
vn -1.0000 0.0000 0.0000
vn 0.0000 -1.0000 0.0000
vn 0.0000 1.0000 0.0000
s off
f 67/1/1 40/2/1 39/3/1
f 47/4/1 2/5/1 1/6/1
f 27/7/2 26/8/2 115/9/2
f 89/10/2 112/11/2 114/12/2
f 54/13/1 16/14/1 15/15/1
f 68/16/2 41/17/2 40/18/2
f 79/19/3 3/20/3 2/21/3
f 63/22/1 28/23/1 27/24/1
f 86/25/3 17/26/3 16/27/3
f 98/28/4 42/29/4 41/30/4
f 80/31/4 4/32/4 3/33/4
f 90/34/2 29/35/2 28/36/2
f 87/37/1 18/38/1 17/39/1
f 42/40/2 47/41/2 1/42/2
f 81/43/2 5/44/2 4/45/2
f 91/46/4 30/47/4 29/48/4
f 69/49/3 44/50/3 43/51/3
f 48/52/1 6/53/1 5/54/1
f 31/55/2 30/56/2 119/57/2
f 92/58/2 116/59/2 118/60/2
f 70/61/1 45/62/1 44/63/1
f 82/64/2 7/65/2 6/66/2
f 93/67/1 32/68/1 31/69/1
f 20/70/1 57/71/1 19/72/1
f 71/73/2 46/74/2 45/75/2
f 83/76/4 8/77/4 7/78/4
f 94/79/2 33/80/2 32/81/2
f 21/82/3 58/83/3 20/84/3
f 46/85/4 69/86/4 43/87/4
f 49/88/3 9/89/3 8/90/3
f 95/91/4 34/92/4 33/93/4
f 22/94/1 59/95/1 21/96/1
f 50/97/4 10/98/4 9/99/4
f 35/100/2 34/101/2 123/102/2
f 64/103/2 120/104/2 122/105/2
f 55/106/3 22/107/3 18/108/3
f 84/109/2 11/110/2 10/111/2
f 96/112/1 36/113/1 35/114/1
f 57/115/3 23/116/3 19/117/3
f 85/118/4 12/119/4 11/120/4
f 65/121/3 37/122/3 36/123/3
f 61/124/4 24/125/4 23/126/4
f 74/127/2 13/128/2 73/129/2
f 97/130/1 38/131/1 37/132/1
f 129/133/3 125/134/3 131/135/3
f 130/136/3 24/137/3 88/138/3
f 62/139/3 136/140/3 137/141/3
f 133/142/3 132/143/3 128/144/3
f 52/145/4 14/146/4 13/147/4
f 66/148/2 39/149/2 38/150/2
f 62/151/1 26/152/1 25/153/1
f 53/154/2 15/155/2 14/156/2
f 51/157/2 73/129/2 12/158/2
f 78/159/2 72/160/2 71/73/2
f 76/161/1 55/162/1 87/37/1
f 77/163/3 61/164/3 57/115/3
f 72/165/4 103/166/4 69/86/4
f 100/167/4 51/168/4 85/118/4
f 103/169/3 70/170/3 69/49/3
f 106/171/1 56/172/1 55/162/1
f 101/173/4 88/174/4 61/124/4
f 75/175/2 74/127/2 51/157/2
f 104/176/1 71/177/1 70/61/1
f 107/178/3 57/115/3 56/179/3
f 87/37/1 111/180/1 76/161/1
f 85/118/4 102/181/4 100/167/4
f 120/182/1 130/183/1 124/184/1
f 121/185/4 126/186/4 129/187/4
f 116/188/1 131/189/1 125/190/1
f 118/191/4 127/192/4 128/193/4
f 115/194/1 134/195/1 133/196/1
f 113/197/4 137/198/4 136/199/4
f 67/1/1 68/200/1 40/2/1
f 47/4/1 79/201/1 2/5/1
f 112/11/2 63/202/2 115/9/2
f 63/202/2 27/7/2 115/9/2
f 26/8/2 89/10/2 113/203/2
f 89/10/2 114/12/2 113/203/2
f 26/8/2 113/203/2 115/9/2
f 89/10/2 63/202/2 112/11/2
f 54/13/1 86/204/1 16/14/1
f 68/16/2 98/205/2 41/17/2
f 79/19/3 80/206/3 3/20/3
f 63/22/1 90/207/1 28/23/1
f 86/25/3 87/208/3 17/26/3
f 98/28/4 99/209/4 42/29/4
f 80/31/4 81/210/4 4/32/4
f 90/34/2 91/211/2 29/35/2
f 87/37/1 55/162/1 18/38/1
f 42/40/2 99/212/2 47/41/2
f 81/43/2 48/213/2 5/44/2
f 91/46/4 92/214/4 30/47/4
f 69/49/3 70/170/3 44/50/3
f 48/52/1 82/215/1 6/53/1
f 116/59/2 93/216/2 119/57/2
f 93/216/2 31/55/2 119/57/2
f 30/56/2 92/58/2 117/217/2
f 92/58/2 118/60/2 117/217/2
f 30/56/2 117/217/2 119/57/2
f 92/58/2 93/216/2 116/59/2
f 70/61/1 71/177/1 45/62/1
f 82/64/2 83/218/2 7/65/2
f 93/67/1 94/219/1 32/68/1
f 20/70/1 58/220/1 57/71/1
f 71/73/2 72/160/2 46/74/2
f 83/76/4 49/221/4 8/77/4
f 94/79/2 95/222/2 33/80/2
f 21/82/3 59/223/3 58/83/3
f 46/85/4 72/165/4 69/86/4
f 49/88/3 50/224/3 9/89/3
f 95/91/4 64/225/4 34/92/4
f 22/94/1 60/226/1 59/95/1
f 50/97/4 84/227/4 10/98/4
f 120/104/2 96/228/2 123/102/2
f 96/228/2 35/100/2 123/102/2
f 34/101/2 64/103/2 121/229/2
f 64/103/2 122/105/2 121/229/2
f 34/101/2 121/229/2 123/102/2
f 64/103/2 96/228/2 120/104/2
f 55/106/3 60/230/3 22/107/3
f 84/109/2 85/231/2 11/110/2
f 96/112/1 65/232/1 36/113/1
f 57/115/3 61/164/3 23/116/3
f 85/118/4 51/168/4 12/119/4
f 65/121/3 97/233/3 37/122/3
f 61/124/4 88/174/4 24/125/4
f 74/127/2 52/234/2 13/128/2
f 97/130/1 66/235/1 38/131/1
f 129/133/3 126/236/3 125/134/3
f 136/140/3 25/237/3 134/238/3
f 25/237/3 24/137/3 129/133/3
f 134/238/3 25/237/3 132/143/3
f 88/138/3 62/139/3 126/236/3
f 62/139/3 137/141/3 135/239/3
f 135/239/3 133/142/3 128/144/3
f 62/139/3 135/239/3 127/240/3
f 132/143/3 25/237/3 131/135/3
f 129/133/3 131/135/3 25/237/3
f 135/239/3 128/144/3 127/240/3
f 125/134/3 126/236/3 62/139/3
f 126/236/3 124/241/3 88/138/3
f 62/139/3 127/240/3 125/134/3
f 130/136/3 129/133/3 24/137/3
f 124/241/3 130/136/3 88/138/3
f 62/139/3 25/237/3 136/140/3
f 133/142/3 134/238/3 132/143/3
f 52/145/4 53/242/4 14/146/4
f 66/148/2 67/243/2 39/149/2
f 62/151/1 89/244/1 26/152/1
f 53/154/2 54/245/2 15/155/2
f 51/157/2 74/127/2 73/129/2
f 78/159/2 105/246/2 72/160/2
f 76/161/1 106/171/1 55/162/1
f 77/163/3 101/247/3 61/164/3
f 72/165/4 105/248/4 103/166/4
f 100/167/4 75/249/4 51/168/4
f 103/169/3 104/250/3 70/170/3
f 106/171/1 107/251/1 56/172/1
f 101/173/4 102/181/4 88/174/4
f 75/175/2 111/252/2 74/127/2
f 104/176/1 78/253/1 71/177/1
f 107/178/3 77/163/3 57/115/3
f 87/37/1 74/254/1 111/180/1
f 85/118/4 88/174/4 102/181/4
f 120/182/1 123/255/1 130/183/1
f 121/185/4 122/256/4 126/186/4
f 116/188/1 119/257/1 131/189/1
f 128/193/4 132/258/4 117/259/4
f 117/259/4 118/191/4 128/193/4
f 133/196/1 135/260/1 112/261/1
f 112/261/1 115/194/1 133/196/1
f 113/197/4 114/262/4 137/198/4
f 52/263/5 74/264/5 87/265/5
f 87/265/5 86/266/5 52/263/5
f 86/266/5 54/267/5 52/263/5
f 52/263/5 54/267/5 53/268/5
f 85/269/5 84/270/5 88/271/5
f 88/271/5 84/270/5 62/272/5
f 84/270/5 50/273/5 62/272/5
f 62/272/5 50/273/5 89/274/5
f 50/273/5 90/275/5 89/274/5
f 63/276/5 89/274/5 90/275/5
f 91/277/5 90/275/5 50/273/5
f 50/273/5 49/278/5 91/277/5
f 94/279/5 91/277/5 49/278/5
f 91/277/5 94/279/5 92/280/5
f 93/281/5 92/280/5 94/279/5
f 94/279/5 49/278/5 95/282/5
f 96/283/5 95/282/5 49/278/5
f 64/284/5 95/282/5 96/283/5
f 65/285/5 96/283/5 49/278/5
f 49/278/5 83/286/5 65/285/5
f 65/285/5 83/286/5 97/287/5
f 83/286/5 82/288/5 97/287/5
f 82/288/5 81/289/5 97/287/5
f 81/289/5 82/288/5 48/290/5
f 81/289/5 80/291/5 97/287/5
f 97/287/5 80/291/5 66/292/5
f 67/293/5 66/292/5 80/291/5
f 68/294/5 67/293/5 80/291/5
f 80/291/5 79/295/5 68/294/5
f 68/294/5 79/295/5 98/296/5
f 79/295/5 47/297/5 98/296/5
f 98/296/5 47/297/5 99/298/5
f 102/299/5 78/300/5 100/301/5
f 78/300/5 104/302/5 100/301/5
f 100/301/5 104/302/5 75/303/5
f 111/304/5 75/303/5 104/302/5
f 104/302/5 103/305/5 111/304/5
f 103/305/5 76/306/5 111/304/5
f 103/305/5 110/307/5 76/306/5
f 106/308/5 76/306/5 110/307/5
f 110/307/5 103/305/5 109/309/5
f 109/309/5 103/305/5 108/310/5
f 103/305/5 105/311/5 108/310/5
f 108/310/5 105/311/5 77/312/5
f 101/313/5 77/312/5 105/311/5
f 105/311/5 78/300/5 101/313/5
f 101/313/5 78/300/5 102/299/5
f 108/310/5 77/312/5 107/314/5
f 108/310/5 107/314/5 109/309/5
f 109/309/5 107/314/5 106/308/5
f 109/309/5 106/308/5 110/307/5
f 120/315/5 126/316/5 122/317/5
f 116/318/5 127/319/5 118/320/5
f 112/321/5 137/322/5 114/323/5
f 120/315/5 124/324/5 126/316/5
f 116/318/5 125/325/5 127/319/5
f 112/321/5 135/326/5 137/322/5
f 24/327/6 11/328/6 45/329/6
f 45/329/6 11/328/6 44/330/6
f 11/328/6 12/331/6 44/330/6
f 73/332/6 44/330/6 12/331/6
f 44/330/6 73/332/6 43/333/6
f 43/333/6 73/332/6 17/334/6
f 43/333/6 17/334/6 22/335/6
f 18/336/6 22/335/6 17/334/6
f 22/335/6 21/337/6 43/333/6
f 21/337/6 20/338/6 43/333/6
f 43/333/6 20/338/6 46/339/6
f 20/338/6 19/340/6 46/339/6
f 23/341/6 46/339/6 19/340/6
f 46/339/6 23/341/6 45/329/6
f 13/342/6 17/334/6 73/332/6
f 17/334/6 13/342/6 16/343/6
f 16/343/6 13/342/6 15/344/6
f 13/342/6 14/345/6 15/344/6
f 23/341/6 24/327/6 45/329/6
f 11/328/6 24/327/6 10/346/6
f 24/327/6 25/347/6 10/346/6
f 10/346/6 25/347/6 9/348/6
f 25/347/6 26/349/6 9/348/6
f 9/348/6 26/349/6 28/350/6
f 27/351/6 28/350/6 26/349/6
f 29/352/6 9/348/6 28/350/6
f 9/348/6 29/352/6 8/353/6
f 32/354/6 8/353/6 29/352/6
f 29/352/6 30/355/6 32/354/6
f 31/356/6 32/354/6 30/355/6
f 32/354/6 33/357/6 8/353/6
f 35/358/6 8/353/6 33/357/6
f 34/359/6 35/358/6 33/357/6
f 36/360/6 8/353/6 35/358/6
f 8/353/6 36/360/6 7/361/6
f 36/360/6 37/362/6 7/361/6
f 7/361/6 37/362/6 6/363/6
f 6/363/6 37/362/6 4/364/6
f 4/364/6 5/365/6 6/363/6
f 4/364/6 37/362/6 3/366/6
f 37/362/6 38/367/6 3/366/6
f 39/368/6 3/366/6 38/367/6
f 40/369/6 3/366/6 39/368/6
f 3/366/6 40/369/6 2/370/6
f 40/369/6 41/371/6 2/370/6
f 2/370/6 41/371/6 1/372/6
f 41/371/6 42/373/6 1/372/6
f 58/374/6 56/375/6 57/376/6
f 58/374/6 59/377/6 56/375/6
f 59/377/6 55/378/6 56/375/6
f 59/377/6 60/379/6 55/378/6
f 123/380/6 129/381/6 130/382/6
f 119/383/6 132/384/6 131/385/6
f 115/386/6 136/387/6 134/388/6
f 123/380/6 121/389/6 129/381/6
f 119/383/6 117/390/6 132/384/6
f 115/386/6 113/391/6 136/387/6
