# Blender v3.2.1 OBJ File: 'level3.blend'
# www.blender.org
o Plane.001
v -48.000000 0.000000 -32.000000
v -54.000000 0.000000 -8.000000
v -58.000000 0.000000 -12.000000
v -58.000000 0.000000 -32.000000
v -31.000000 0.000000 -8.000000
v -29.000000 0.000000 -10.000000
v -29.000000 0.000000 -14.000000
v -24.000000 0.000000 -14.000000
v -24.000000 0.000000 -2.000000
v -32.000000 0.000000 7.000000
v -38.000000 0.000000 7.000000
v -38.000000 0.000000 3.000000
v -42.000000 0.000000 3.000000
v -42.000000 0.000000 7.000000
v -47.000000 0.000000 7.000000
v -47.000000 0.000000 3.000000
v -51.000000 0.000000 3.000000
v -51.000000 0.000000 7.000000
v -57.000000 0.000000 13.000000
v -58.000000 0.000000 13.000000
v -58.000000 0.000000 17.000000
v -57.000000 0.000000 17.000000
v -51.000000 0.000000 23.000000
v -51.000000 0.000000 27.000000
v -47.000000 0.000000 27.000000
v -47.000000 0.000000 23.000000
v -42.000000 0.000000 23.000000
v -42.000000 0.000000 27.000000
v -38.000000 0.000000 27.000000
v -38.000000 0.000000 23.000000
v -23.000000 0.000000 23.000000
v -23.000000 0.000000 18.000000
v -14.000000 0.000000 18.000000
v -14.000000 0.000000 23.000000
v -4.000000 0.000000 23.000000
v -4.000000 0.000000 14.000000
v 4.000000 0.000000 14.000000
v 11.000000 0.000000 21.000000
v 40.000000 2.000000 21.000000
v 49.000000 2.000000 12.000000
v 57.000000 2.000000 12.000000
v 57.000000 2.000000 -1.000000
v 66.000000 2.000000 -1.000000
v 66.000000 2.000000 -5.000000
v 57.000000 2.000000 -5.000000
v 57.000000 2.000000 -18.000000
v 49.000000 2.000000 -18.000000
v 49.000000 2.000000 -23.000000
v 42.000000 2.000000 -30.000000
v 33.000000 2.000000 -30.000000
v 26.000000 2.000000 -23.000000
v 24.000000 2.000000 -23.000000
v 24.000000 2.000000 -28.000000
v 18.000000 2.000000 -28.000000
v 18.000000 2.000000 -23.000000
v 16.000000 2.000000 -23.000000
v 13.000000 2.000000 -30.000000
v -12.000000 0.000000 -30.000000
v -24.000000 0.000000 -18.000000
v -29.000000 0.000000 -18.000000
v -29.000000 0.000000 -22.000000
v -31.000000 0.000000 -24.000000
v -54.000000 0.000000 -24.000000
v -54.000000 0.000000 -28.000000
v -48.000000 0.000000 -28.000000
v 16.000000 2.000000 -14.000000
v 37.000000 2.000000 -14.000000
v 37.000000 2.000000 -11.000000
v 26.000000 2.000000 -11.000000
v 16.000000 0.000000 12.000000
v 26.000000 2.000000 12.000000
v 26.000000 2.000000 8.000000
v 29.000000 2.000000 5.000000
v 26.000000 2.000000 2.000000
v 29.000000 2.000000 -1.000000
v 32.000000 2.000000 2.000000
v 37.000000 2.000000 -3.000000
v 37.000000 2.000000 -5.000000
v 26.000000 2.000000 -5.000000
v 44.000000 2.000000 -5.000000
v 49.000000 2.000000 -5.000000
v 49.000000 2.000000 -14.000000
v 53.000000 2.000000 -14.000000
v 53.000000 2.000000 8.000000
v 49.000000 2.000000 8.000000
v 49.000000 2.000000 2.000000
v 44.000000 2.000000 2.000000
v -16.000000 0.000000 12.000000
v -16.000000 0.000000 7.000000
v -21.000000 0.000000 7.000000
v -21.000000 0.000000 12.000000
v -23.000000 0.000000 12.000000
v -25.000000 0.000000 9.000000
v -25.000000 0.000000 7.000000
v -20.000000 0.000000 2.000000
v -17.000000 0.000000 2.000000
v -12.000000 0.000000 7.000000
v -12.000000 0.000000 9.000000
v -14.000000 0.000000 12.000000
v -48.000000 4.000000 -32.000000
v -54.000000 4.000000 -8.000000
v -58.000000 4.000000 -12.000000
v -58.000000 4.000000 -32.000000
v -31.000000 4.000000 -8.000000
v -29.000000 4.000000 -10.000000
v -29.000000 4.000000 -14.000000
v -24.000000 6.000000 -14.000000
v -24.000000 6.000000 -2.000000
v -32.000000 6.000000 7.000000
v -38.000000 6.000000 7.000000
v -38.000000 6.000000 3.000000
v -42.000000 6.000000 3.000000
v -42.000000 6.000000 7.000000
v -47.000000 6.000000 7.000000
v -47.000000 6.000000 3.000000
v -51.000000 6.000000 3.000000
v -51.000000 6.000000 7.000000
v -57.000000 6.000000 13.000000
v -58.000000 6.000000 13.000000
v -58.000000 6.000000 17.000000
v -57.000000 6.000000 17.000000
v -51.000000 6.000000 23.000000
v -51.000000 6.000000 27.000000
v -47.000000 6.000000 27.000000
v -47.000000 6.000000 23.000000
v -42.000000 6.000000 23.000000
v -42.000000 6.000000 27.000000
v -38.000000 6.000000 27.000000
v -38.000000 6.000000 23.000000
v -23.000000 6.000000 23.000000
v -23.000000 6.000000 18.000000
v -14.000000 6.000000 18.000000
v -14.000000 6.000000 23.000000
v -4.000000 6.000000 23.000000
v -4.000000 6.000000 14.000000
v 4.000000 6.000000 14.000000
v 11.000000 6.000000 21.000000
v 40.000000 6.000000 21.000000
v 49.000000 6.000000 12.000000
v 57.000000 6.000000 12.000000
v 57.000000 6.000000 -1.000000
v 66.000000 6.000000 -1.000000
v 66.000000 6.000000 -5.000000
v 57.000000 6.000000 -5.000000
v 57.000000 6.000000 -18.000000
v 49.000000 6.000000 -18.000000
v 49.000000 6.000000 -23.000000
v 42.000000 6.000000 -30.000000
v 33.000000 6.000000 -30.000000
v 26.000000 6.000000 -23.000000
v 24.000000 6.000000 -23.000000
v 24.000000 6.000000 -28.000000
v 18.000000 6.000000 -28.000000
v 18.000000 6.000000 -23.000000
v 16.000000 6.000000 -23.000000
v 13.000000 6.000000 -30.000000
v -12.000000 6.000000 -30.000000
v -24.000000 6.000000 -18.000000
v -29.000000 4.000000 -18.000000
v -29.000000 4.000000 -22.000000
v -31.000000 4.000000 -24.000000
v -54.000000 4.000000 -24.000000
v -54.000000 4.000000 -28.000000
v -48.000000 4.000000 -28.000000
v -16.000000 6.000000 12.000000
v -16.000000 6.000000 7.000000
v -21.000000 6.000000 7.000000
v -21.000000 6.000000 12.000000
v -23.000000 6.000000 12.000000
v -25.000000 6.000000 9.000000
v -25.000000 6.000000 7.000000
v -20.000000 6.000000 2.000000
v -17.000000 6.000000 2.000000
v -12.000000 6.000000 7.000000
v -12.000000 6.000000 9.000000
v -14.000000 6.000000 12.000000
v 16.000000 6.000000 -14.000000
v 37.000000 6.000000 -14.000000
v 37.000000 6.000000 -11.000000
v 26.000000 6.000000 -11.000000
v 16.000000 6.000000 12.000000
v 26.000000 6.000000 12.000000
v 26.000000 6.000000 8.000000
v 29.000000 6.000000 5.000000
v 26.000000 6.000000 2.000000
v 29.000000 6.000000 -1.000000
v 32.000000 6.000000 2.000000
v 37.000000 6.000000 -3.000000
v 37.000000 6.000000 -5.000000
v 26.000000 6.000000 -5.000000
v 44.000000 6.000000 -5.000000
v 49.000000 6.000000 -5.000000
v 49.000000 6.000000 -14.000000
v 53.000000 6.000000 -14.000000
v 53.000000 6.000000 8.000000
v 49.000000 6.000000 8.000000
v 49.000000 6.000000 2.000000
v 44.000000 6.000000 2.000000
v 24.000000 2.000000 21.000000
v 24.000000 6.000000 21.000000
v -1.000000 6.000000 -30.000000
v 5.000000 6.000000 -30.000000
v 5.000000 2.000000 -30.000000
v -1.000000 2.000000 -24.000000
v -3.000000 0.000000 -24.000000
v -13.000000 0.000000 -14.000000
v -13.000000 0.000000 -2.000000
v -4.000000 0.000000 7.000000
v 11.000000 0.000000 7.000000
v 5.000000 2.000000 -24.000000
v -3.000000 2.000000 -24.000000
v -13.000000 2.000000 -14.000000
v -13.000000 2.000000 -2.000000
v -4.000000 2.000000 7.000000
v 11.000000 2.000000 7.000000
v 11.000000 2.000000 -1.000000
v 16.000000 2.000000 -1.000000
v 16.000000 6.000000 -1.000000
v 16.000000 0.000000 7.000000
v 16.000000 6.000000 7.000000
v 24.000000 2.000000 12.000000
v 24.000000 6.000000 12.000000
v 17.000000 0.000000 12.000000
v 17.000000 6.000000 12.000000
v 17.000000 6.000000 21.000000
v 17.000000 0.000000 21.000000
v -1.000000 0.000000 -30.000000
v -1.000000 0.000000 -24.000000
v 26.000000 -2.000000 -11.000000
v 26.000000 -2.000000 -5.000000
v 26.000000 1.500000 -11.000000
v 26.000000 1.500000 -5.000000
v -13.000000 0.000000 -11.000000
v -13.000000 0.000000 -5.000000
v -13.000000 2.000000 -11.000000
v -13.000000 2.000000 -5.000000
v -13.000000 1.500000 -5.000000
v -13.000000 1.500000 -11.000000
v -18.000000 0.000000 -11.000000
v -18.000000 0.000000 -5.000000
v -13.000000 -2.000000 -11.000000
v -13.000000 -2.000000 -5.000000
v 1.000000 0.000000 7.000000
v 7.000000 0.000000 7.000000
v 1.000000 2.000000 7.000000
v 7.000000 2.000000 7.000000
v 7.000000 1.500000 7.000000
v 1.000000 1.500000 7.000000
v 1.000000 0.000000 10.000000
v 7.000000 0.000000 10.000000
v 1.000000 -2.000000 10.000000
v 7.000000 -2.000000 10.000000
v 1.000000 -2.000000 -5.000000
v 7.000000 -2.000000 -5.000000
v 1.000000 1.500000 -5.000000
v 7.000000 1.500000 -5.000000
v -24.000000 4.000000 -18.000000
v -24.000000 4.000000 -14.000000
v -47.000000 0.000000 -13.000000
v -47.000000 4.000000 -13.000000
v -47.000000 0.000000 -19.000000
v -47.000000 4.000000 -19.000000
v -41.000000 0.000000 -13.000000
v -41.000000 4.000000 -13.000000
v -41.000000 0.000000 -19.000000
v -41.000000 4.000000 -19.000000
v 35.000000 2.000000 -19.000000
v 35.000000 6.000000 -19.000000
v 35.000000 2.000000 -24.000000
v 35.000000 6.000000 -24.000000
v 40.000000 2.000000 -19.000000
v 40.000000 6.000000 -19.000000
v 40.000000 2.000000 -24.000000
v 40.000000 6.000000 -24.000000
vn 0.0000 0.0000 -1.0000
vn 0.7071 0.0000 0.7071
vn -1.0000 0.0000 0.0000
vn -0.7071 0.0000 0.7071
vn 1.0000 0.0000 0.0000
vn 0.0000 0.0000 1.0000
vn -0.8321 0.0000 -0.5547
vn -0.7071 0.0000 -0.7071
vn 0.7071 0.0000 -0.7071
vn 0.9191 0.0000 -0.3939
vn 0.8321 0.0000 -0.5547
vn -0.7474 0.0000 -0.6644
vn 0.0000 1.0000 0.0000
vn 0.3162 -0.9487 0.0000
vn 0.0000 -0.9701 -0.2425
vn 0.0000 -1.0000 0.0000
vn 0.2747 -0.9615 0.0000
vn 0.3417 -0.9398 0.0000
vn -0.3714 -0.9285 0.0000
s off
f 11//1 109//1 10//1
f 95//2 171//2 94//2
f 65//3 100//3 1//3
f 38//4 136//4 37//4
f 12//5 110//5 11//5
f 96//6 172//6 95//6
f 40//2 138//2 39//2
f 13//1 111//1 12//1
f 97//4 173//4 96//4
f 41//6 139//6 40//6
f 14//3 112//3 13//3
f 98//3 174//3 97//3
f 42//5 140//5 41//5
f 15//1 113//1 14//1
f 99//7 175//7 98//7
f 43//6 141//6 42//6
f 16//5 114//5 15//5
f 165//1 99//1 88//1
f 44//5 142//5 43//5
f 17//1 115//1 16//1
f 45//1 143//1 44//1
f 18//3 116//3 17//3
f 227//1 157//1 201//1
f 46//5 144//5 45//5
f 19//8 117//8 18//8
f 47//1 145//1 46//1
f 20//1 118//1 19//1
f 48//5 146//5 47//5
f 21//3 119//3 20//3
f 49//9 147//9 48//9
f 22//6 120//6 21//6
f 50//1 148//1 49//1
f 23//4 121//4 22//4
f 51//8 149//8 50//8
f 24//3 122//3 23//3
f 52//1 150//1 51//1
f 25//6 123//6 24//6
f 53//5 151//5 52//5
f 26//5 124//5 25//5
f 54//1 152//1 53//1
f 27//6 125//6 26//6
f 55//3 153//3 54//3
f 28//3 126//3 27//3
f 6//2 104//2 5//2
f 56//1 154//1 55//1
f 29//6 127//6 28//6
f 5//6 101//6 2//6
f 57//10 155//10 56//10
f 30//5 128//5 29//5
f 2//4 102//4 3//4
f 257//8 158//8 157//8
f 31//6 129//6 30//6
f 3//3 103//3 4//3
f 89//5 165//5 88//5
f 32//5 130//5 31//5
f 4//1 100//1 1//1
f 90//1 166//1 89//1
f 61//5 159//5 60//5
f 33//6 131//6 32//6
f 7//5 105//5 6//5
f 91//3 167//3 90//3
f 62//9 160//9 61//9
f 34//3 132//3 33//3
f 257//3 107//3 158//3
f 92//1 168//1 91//1
f 63//1 161//1 62//1
f 35//6 133//6 34//6
f 108//3 107//3 258//3
f 93//11 169//11 92//11
f 64//5 162//5 63//5
f 36//5 134//5 35//5
f 10//12 108//12 9//12
f 94//5 170//5 93//5
f 65//6 163//6 64//6
f 37//6 135//6 36//6
f 71//3 183//3 72//3
f 70//1 224//1 223//1
f 72//8 184//8 73//8
f 73//4 185//4 74//4
f 74//8 186//8 75//8
f 75//9 187//9 76//9
f 67//6 177//6 66//6
f 76//8 188//8 77//8
f 68//3 178//3 67//3
f 66//5 218//5 217//5
f 77//3 189//3 78//3
f 69//1 179//1 68//1
f 78//6 190//6 79//6
f 191//5 87//5 80//5
f 86//5 196//5 85//5
f 84//3 194//3 83//3
f 82//5 192//5 81//5
f 87//1 197//1 86//1
f 85//1 195//1 84//1
f 83//6 193//6 82//6
f 81//6 191//6 80//6
f 156//1 203//1 202//1
f 137//6 226//6 225//6
f 199//6 138//6 200//6
f 215//3 216//3 209//3
f 207//9 214//9 208//9
f 205//2 212//2 206//2
f 214//1 245//1 248//1
f 212//5 235//5 238//5
f 228//6 210//6 204//6
f 217//5 220//5 219//5
f 219//5 181//5 70//5
f 221//1 182//1 71//1
f 221//1 224//1 222//1
f 225//6 199//6 200//6
f 203//1 201//1 202//1
f 228//6 211//6 205//6
f 79//3 180//3 69//3
f 78//6 232//6 230//6
f 68//1 231//1 69//1
f 69//3 232//3 79//3
f 237//5 236//5 213//5
f 238//5 236//5 237//5
f 239//1 233//1 241//1
f 240//6 242//6 234//6
f 247//1 246//1 215//1
f 248//1 246//1 247//1
f 249//5 251//5 243//5
f 250//3 244//3 252//3
f 249//1 252//1 251//1
f 253//3 251//3 243//3
f 244//5 254//5 256//5
f 234//6 253//6 255//6
f 256//6 230//6 232//6
f 233//1 238//1 231//1
f 238//13 255//13 256//13
f 60//1 257//1 59//1
f 8//6 106//6 7//6
f 260//3 261//3 259//3
f 262//1 265//1 261//1
f 266//5 263//5 265//5
f 264//6 259//6 263//6
f 268//3 269//3 267//3
f 270//1 273//1 269//1
f 274//5 271//5 273//5
f 272//6 267//6 271//6
f 11//1 110//1 109//1
f 95//2 172//2 171//2
f 65//3 164//3 100//3
f 38//4 137//4 136//4
f 12//5 111//5 110//5
f 96//6 173//6 172//6
f 40//2 139//2 138//2
f 13//1 112//1 111//1
f 97//4 174//4 173//4
f 41//6 140//6 139//6
f 14//3 113//3 112//3
f 98//3 175//3 174//3
f 42//5 141//5 140//5
f 15//1 114//1 113//1
f 99//7 176//7 175//7
f 43//6 142//6 141//6
f 16//5 115//5 114//5
f 165//1 176//1 99//1
f 44//5 143//5 142//5
f 17//1 116//1 115//1
f 45//1 144//1 143//1
f 18//3 117//3 116//3
f 227//1 58//1 157//1
f 46//5 145//5 144//5
f 19//8 118//8 117//8
f 47//1 146//1 145//1
f 20//1 119//1 118//1
f 48//5 147//5 146//5
f 21//3 120//3 119//3
f 49//9 148//9 147//9
f 22//6 121//6 120//6
f 50//1 149//1 148//1
f 23//4 122//4 121//4
f 51//8 150//8 149//8
f 24//3 123//3 122//3
f 52//1 151//1 150//1
f 25//6 124//6 123//6
f 53//5 152//5 151//5
f 26//5 125//5 124//5
f 54//1 153//1 152//1
f 27//6 126//6 125//6
f 55//3 154//3 153//3
f 28//3 127//3 126//3
f 6//2 105//2 104//2
f 56//1 155//1 154//1
f 29//6 128//6 127//6
f 5//6 104//6 101//6
f 57//10 156//10 155//10
f 30//5 129//5 128//5
f 2//4 101//4 102//4
f 157//8 58//8 257//8
f 58//8 59//8 257//8
f 31//6 130//6 129//6
f 3//3 102//3 103//3
f 89//5 166//5 165//5
f 32//5 131//5 130//5
f 4//1 103//1 100//1
f 90//1 167//1 166//1
f 61//5 160//5 159//5
f 33//6 132//6 131//6
f 7//5 106//5 105//5
f 91//3 168//3 167//3
f 62//9 161//9 160//9
f 34//3 133//3 132//3
f 257//3 258//3 107//3
f 92//1 169//1 168//1
f 63//1 162//1 161//1
f 35//6 134//6 133//6
f 258//3 8//3 9//3
f 9//3 108//3 258//3
f 93//11 170//11 169//11
f 64//5 163//5 162//5
f 36//5 135//5 134//5
f 10//12 109//12 108//12
f 94//5 171//5 170//5
f 65//6 164//6 163//6
f 37//6 136//6 135//6
f 71//3 182//3 183//3
f 70//1 181//1 224//1
f 72//8 183//8 184//8
f 73//4 184//4 185//4
f 74//8 185//8 186//8
f 75//9 186//9 187//9
f 67//6 178//6 177//6
f 76//8 187//8 188//8
f 68//3 179//3 178//3
f 66//5 177//5 218//5
f 77//3 188//3 189//3
f 69//1 180//1 179//1
f 78//6 189//6 190//6
f 191//5 198//5 87//5
f 86//5 197//5 196//5
f 84//3 195//3 194//3
f 82//5 193//5 192//5
f 87//1 198//1 197//1
f 85//1 196//1 195//1
f 83//6 194//6 193//6
f 81//6 192//6 191//6
f 156//1 57//1 203//1
f 137//6 38//6 226//6
f 199//6 39//6 138//6
f 207//9 213//9 214//9
f 205//2 211//2 212//2
f 248//1 243//1 208//1
f 208//1 214//1 248//1
f 238//5 233//5 206//5
f 206//5 212//5 238//5
f 217//5 218//5 220//5
f 219//5 220//5 181//5
f 221//1 222//1 182//1
f 221//1 223//1 224//1
f 225//6 226//6 199//6
f 203//1 227//1 201//1
f 228//6 204//6 211//6
f 79//3 190//3 180//3
f 78//6 79//6 232//6
f 68//1 229//1 231//1
f 69//3 231//3 232//3
f 213//5 207//5 237//5
f 207//5 234//5 237//5
f 238//5 235//5 236//5
f 215//1 209//1 247//1
f 209//1 244//1 247//1
f 248//1 245//1 246//1
f 249//1 250//1 252//1
f 243//3 248//3 255//3
f 255//3 253//3 243//3
f 256//5 247//5 244//5
f 244//5 252//5 254//5
f 255//6 237//6 234//6
f 234//6 242//6 253//6
f 256//6 254//6 230//6
f 231//1 229//1 233//1
f 229//1 241//1 233//1
f 232//13 231//13 256//13
f 231//13 238//13 256//13
f 238//13 237//13 255//13
f 255//13 248//13 247//13
f 255//13 247//13 256//13
f 60//1 159//1 257//1
f 8//6 258//6 106//6
f 260//3 262//3 261//3
f 262//1 266//1 265//1
f 266//5 264//5 263//5
f 264//6 260//6 259//6
f 268//3 270//3 269//3
f 270//1 274//1 273//1
f 274//5 272//5 271//5
f 272//6 268//6 267//6
f 159//13 258//13 257//13
f 210//14 227//14 203//14
f 217//15 209//15 216//15
f 245//16 236//16 216//16
f 223//17 199//17 226//17
f 55//16 52//16 66//16
f 2//16 63//16 60//16
f 60//16 8//16 7//16
f 206//16 8//16 59//16
f 95//16 207//16 96//16
f 9//16 94//16 10//16
f 97//16 207//16 208//16
f 19//16 18//16 26//16
f 91//16 88//16 33//16
f 78//18 229//18 68//18
f 9//16 8//16 240//16
f 239//19 242//19 240//19
f 209//16 219//16 70//16
f 254//16 253//16 241//16
f 98//16 208//16 36//16
f 37//16 249//16 250//16
f 162//13 163//13 103//13
f 159//13 106//13 258//13
f 210//14 228//14 227//14
f 217//15 219//15 209//15
f 57//16 56//16 210//16
f 56//16 66//16 210//16
f 66//16 217//16 216//16
f 216//16 215//16 246//16
f 245//16 214//16 236//16
f 214//16 213//16 236//16
f 216//16 246//16 245//16
f 66//16 216//16 210//16
f 210//16 203//16 57//16
f 212//16 211//16 204//16
f 212//16 204//16 235//16
f 204//16 210//16 216//16
f 235//16 204//16 216//16
f 236//16 235//16 216//16
f 223//17 221//17 199//17
f 40//16 39//16 76//16
f 39//16 199//16 71//16
f 73//16 39//16 71//16
f 199//16 221//16 71//16
f 71//16 72//16 73//16
f 73//16 74//16 75//16
f 73//16 75//16 76//16
f 42//16 41//16 40//16
f 39//16 73//16 76//16
f 76//16 77//16 40//16
f 40//16 77//16 42//16
f 44//16 43//16 42//16
f 47//16 46//16 45//16
f 45//16 44//16 42//16
f 78//16 68//16 47//16
f 68//16 67//16 47//16
f 42//16 77//16 45//16
f 77//16 78//16 45//16
f 47//16 45//16 78//16
f 49//16 48//16 67//16
f 48//16 47//16 67//16
f 51//16 50//16 67//16
f 50//16 49//16 67//16
f 54//16 53//16 52//16
f 55//16 54//16 52//16
f 52//16 51//16 66//16
f 67//16 66//16 51//16
f 66//16 56//16 55//16
f 6//16 5//16 7//16
f 5//16 2//16 7//16
f 2//16 3//16 63//16
f 3//16 4//16 63//16
f 4//16 1//16 64//16
f 1//16 65//16 64//16
f 62//16 61//16 60//16
f 60//16 7//16 2//16
f 4//16 64//16 63//16
f 63//16 62//16 60//16
f 60//16 59//16 8//16
f 59//16 58//16 206//16
f 58//16 227//16 205//16
f 227//16 228//16 205//16
f 205//16 206//16 58//16
f 95//16 9//16 207//16
f 9//16 95//16 94//16
f 97//16 96//16 207//16
f 11//16 10//16 30//16
f 10//16 94//16 93//16
f 93//16 92//16 10//16
f 92//16 32//16 10//16
f 13//16 12//16 11//16
f 14//16 13//16 11//16
f 10//16 32//16 30//16
f 32//16 31//16 30//16
f 30//16 29//16 28//16
f 30//16 28//16 27//16
f 15//16 14//16 26//16
f 14//16 11//16 27//16
f 26//16 14//16 27//16
f 11//16 30//16 27//16
f 26//16 25//16 24//16
f 17//16 16//16 15//16
f 26//16 24//16 23//16
f 22//16 21//16 20//16
f 26//16 23//16 22//16
f 17//16 15//16 18//16
f 15//16 26//16 18//16
f 26//16 22//16 19//16
f 22//16 20//16 19//16
f 33//16 32//16 91//16
f 32//16 92//16 91//16
f 91//16 90//16 89//16
f 88//16 99//16 33//16
f 91//16 89//16 88//16
f 78//18 230//18 229//18
f 234//16 207//16 240//16
f 207//16 9//16 240//16
f 8//16 206//16 239//16
f 206//16 233//16 239//16
f 8//16 239//16 240//16
f 239//19 241//19 242//19
f 70//16 223//16 226//16
f 226//16 38//16 70//16
f 38//16 209//16 70//16
f 241//16 229//16 254//16
f 229//16 230//16 254//16
f 254//16 252//16 251//16
f 253//16 242//16 241//16
f 254//16 251//16 253//16
f 35//16 34//16 33//16
f 33//16 99//16 36//16
f 99//16 98//16 36//16
f 98//16 97//16 208//16
f 36//16 35//16 33//16
f 36//16 208//16 249//16
f 208//16 243//16 249//16
f 209//16 38//16 250//16
f 38//16 37//16 250//16
f 37//16 36//16 249//16
f 250//16 244//16 209//16
f 101//13 104//13 106//13
f 104//13 105//13 106//13
f 106//13 159//13 101//13
f 159//13 160//13 161//13
f 101//13 159//13 162//13
f 103//13 102//13 162//13
f 102//13 101//13 162//13
f 164//13 100//13 163//13
f 100//13 103//13 163//13
f 162//13 159//13 161//13
